<svg height="512pt" viewBox="0 0 512 512" width="512pt" xmlns="http://www.w3.org/2000/svg"><path d="m256 512c-68.378906 0-132.667969-26.628906-181.019531-74.980469-48.351563-48.351562-74.980469-112.640625-74.980469-181.019531s26.628906-132.667969 74.980469-181.019531c48.351562-48.351563 112.640625-74.980469 181.019531-74.980469s132.667969 26.628906 181.019531 74.980469c48.351563 48.351562 74.980469 112.640625 74.980469 181.019531 0 50.53125-14.996094 99.675781-43.375 142.117188-6.136719 9.183593-18.558594 11.648437-27.742188 5.511718-9.179687-6.140625-11.648437-18.5625-5.507812-27.742187 23.960938-35.84375 36.625-77.296875 36.625-119.886719 0-119.101562-96.898438-216-216-216s-216 96.898438-216 216 96.898438 216 216 216c39.503906 0 78.144531-10.757812 111.738281-31.105469 9.445313-5.722656 21.742188-2.703125 27.46875 6.746094 5.722657 9.445313 2.703125 21.746094-6.746093 27.464844-39.84375 24.136719-85.648438 36.894531-132.460938 36.894531zm-21.742188-161.707031 99.703126-57.761719c13.171874-7.632812 21.039062-21.289062 21.039062-36.53125s-7.867188-28.898438-21.042969-36.53125l-99.699219-57.761719c-13.183593-7.636719-28.9375-7.65625-42.136718-.046875-13.226563 7.621094-21.121094 21.296875-21.121094 36.578125v115.523438c0 15.28125 7.894531 28.957031 21.121094 36.578125 6.589844 3.796875 13.808594 5.691406 21.027344 5.691406 7.25.003906 14.503906-1.910156 21.109374-5.738281zm-20.050781-153.976563 99.699219 57.761719c.300781.175781 1.09375.632813 1.09375 1.921875s-.792969 1.746094-1.09375 1.921875l-99.699219 57.761719c-.316406.179687-1.054687.609375-2.109375 0-1.097656-.632813-1.097656-1.535156-1.097656-1.921875v-115.523438c0-.386719 0-1.289062 1.097656-1.921875.40625-.234375.765625-.3125 1.070313-.3125.488281-.003906.84375.203125 1.039062.3125zm0 0"/></svg>